<svg width="180" height="50" viewBox="0 0 1476 402" fill="none" xmlns="http://www.w3.org/2000/svg">
<path d="M20.0359 385.715V346.975H6.35249V341.881H39.5244V346.975H25.841V385.715H20.0359ZM46.952 385.715V341.881H52.7571V385.715H46.952ZM88.7612 329.797L83.9632 329.737L89.0574 319.075H94.8625L88.7612 329.797ZM67.7918 337.379L74.9594 328.671H79.7574L86.9249 337.379H81.8307L77.3288 331.929L72.8861 337.379H67.7918ZM62.8161 385.715V341.881H90.6568V346.975H68.6211V360.836H87.9319V365.93H68.6211V380.621H90.953V385.715H62.8161ZM99.5352 385.715V341.881H104.748L127.613 375.23V341.881H133.418V385.715H128.205L105.34 352.425V385.715H99.5352ZM162.468 386.307C158.914 386.307 155.814 385.676 153.168 384.412C150.523 383.148 148.331 381.45 146.593 379.318C144.856 377.146 143.552 374.737 142.684 372.091C141.854 369.406 141.44 366.661 141.44 363.857C141.44 361.053 141.854 358.309 142.684 355.623C143.552 352.938 144.856 350.529 146.593 348.397C148.37 346.225 150.582 344.507 153.228 343.243C155.913 341.94 159.052 341.288 162.646 341.288C165.41 341.288 167.78 341.644 169.754 342.355C171.768 343.065 173.447 343.974 174.789 345.079C176.132 346.185 177.218 347.37 178.047 348.634C178.877 349.858 179.508 351.023 179.943 352.129C180.377 353.234 180.654 354.143 180.772 354.853C180.93 355.564 181.009 355.92 181.009 355.92H175.145C175.145 355.92 175.066 355.604 174.908 354.972C174.75 354.34 174.434 353.57 173.96 352.662C173.486 351.714 172.775 350.786 171.828 349.878C170.919 348.93 169.715 348.14 168.214 347.508C166.753 346.876 164.917 346.56 162.705 346.56C160.099 346.56 157.828 347.054 155.893 348.041C153.958 349.029 152.359 350.351 151.095 352.01C149.831 353.629 148.884 355.465 148.252 357.519C147.62 359.533 147.304 361.606 147.304 363.739C147.304 365.911 147.62 368.043 148.252 370.136C148.884 372.19 149.831 374.046 151.095 375.704C152.398 377.323 153.998 378.627 155.893 379.614C157.789 380.562 159.98 381.035 162.468 381.035C166.536 381.035 169.754 379.851 172.124 377.481C174.533 375.072 175.836 371.834 176.033 367.767H163.001V362.969H181.601V365.99C181.601 370.492 180.733 374.243 178.995 377.244C177.297 380.246 175.007 382.516 172.124 384.056C169.241 385.557 166.023 386.307 162.468 386.307ZM202.966 385.715V341.881H208.179L231.044 375.23V341.881H236.849V385.715H231.636L208.771 352.425V385.715H202.966ZM268.446 336.55L263.648 336.49L268.743 325.828H274.548L268.446 336.55ZM266.077 386.307C262.602 386.307 259.541 385.676 256.895 384.412C254.25 383.109 252.038 381.391 250.261 379.258C248.484 377.086 247.141 374.658 246.233 371.972C245.325 369.287 244.871 366.542 244.871 363.739C244.871 360.935 245.325 358.21 246.233 355.564C247.141 352.879 248.484 350.47 250.261 348.337C252.038 346.205 254.25 344.507 256.895 343.243C259.541 341.94 262.602 341.288 266.077 341.288C269.552 341.288 272.613 341.94 275.259 343.243C277.904 344.507 280.116 346.205 281.893 348.337C283.67 350.47 285.013 352.879 285.921 355.564C286.829 358.21 287.283 360.935 287.283 363.739C287.283 366.542 286.829 369.287 285.921 371.972C285.013 374.658 283.67 377.086 281.893 379.258C280.116 381.391 277.904 383.109 275.259 384.412C272.613 385.676 269.552 386.307 266.077 386.307ZM266.077 380.917C268.565 380.917 270.757 380.443 272.652 379.495C274.548 378.548 276.127 377.264 277.391 375.645C278.694 374.026 279.681 372.19 280.353 370.136C281.024 368.083 281.36 365.95 281.36 363.739C281.36 361.567 281.024 359.474 280.353 357.46C279.681 355.406 278.694 353.57 277.391 351.951C276.127 350.332 274.548 349.048 272.652 348.1C270.757 347.153 268.565 346.679 266.077 346.679C263.589 346.679 261.397 347.153 259.502 348.1C257.606 349.048 256.007 350.332 254.704 351.951C253.44 353.57 252.473 355.406 251.801 357.46C251.13 359.474 250.794 361.567 250.794 363.739C250.794 365.95 251.13 368.083 251.801 370.136C252.473 372.19 253.44 374.026 254.704 375.645C256.007 377.264 257.606 378.548 259.502 379.495C261.397 380.443 263.589 380.917 266.077 380.917ZM295.29 385.715V341.881H301.095V385.715H295.29ZM343.466 386.307C340.03 386.307 337.009 385.676 334.402 384.412C331.796 383.109 329.624 381.391 327.887 379.258C326.188 377.086 324.905 374.678 324.036 372.032C323.167 369.346 322.733 366.602 322.733 363.798C322.733 360.994 323.167 358.25 324.036 355.564C324.905 352.879 326.188 350.47 327.887 348.337C329.624 346.165 331.796 344.448 334.402 343.184C337.009 341.92 340.03 341.288 343.466 341.288C346.309 341.288 348.737 341.664 350.751 342.414C352.805 343.125 354.503 344.053 355.846 345.198C357.228 346.343 358.334 347.567 359.163 348.871C360.032 350.174 360.664 351.398 361.058 352.543C361.493 353.688 361.769 354.636 361.888 355.386C362.046 356.097 362.125 356.453 362.125 356.453H356.32C356.32 356.453 356.241 356.137 356.083 355.505C355.925 354.834 355.609 354.024 355.135 353.076C354.661 352.089 353.95 351.102 353.002 350.114C352.055 349.127 350.811 348.318 349.271 347.686C347.73 347.014 345.815 346.679 343.525 346.679C341.037 346.679 338.865 347.172 337.009 348.16C335.153 349.107 333.593 350.411 332.329 352.069C331.105 353.688 330.177 355.525 329.545 357.578C328.953 359.592 328.657 361.665 328.657 363.798C328.657 365.93 328.953 368.023 329.545 370.077C330.177 372.091 331.105 373.927 332.329 375.586C333.593 377.205 335.153 378.508 337.009 379.495C338.865 380.443 341.037 380.917 343.525 380.917C345.815 380.917 347.73 380.581 349.271 379.91C350.811 379.239 352.055 378.429 353.002 377.481C353.95 376.494 354.661 375.527 355.135 374.579C355.609 373.592 355.925 372.762 356.083 372.091C356.241 371.42 356.32 371.084 356.32 371.084H362.125C362.125 371.084 362.046 371.459 361.888 372.209C361.769 372.92 361.493 373.868 361.058 375.053C360.664 376.198 360.032 377.422 359.163 378.725C358.334 379.989 357.228 381.213 355.846 382.398C354.503 383.543 352.805 384.491 350.751 385.241C348.737 385.952 346.309 386.307 343.466 386.307ZM385.309 337.557V335.661C385.309 335.266 385.388 334.871 385.546 334.476C385.704 334.081 386.02 333.765 386.494 333.529L387.323 333.114C389.14 332.206 390.048 331.199 390.048 330.093C390.048 329.54 389.831 329.046 389.396 328.612C389.001 328.138 388.35 327.901 387.441 327.901C386.652 327.901 386.059 328.079 385.664 328.434C385.309 328.75 385.072 329.106 384.954 329.501C384.835 329.895 384.776 330.211 384.776 330.448H380.866C380.866 329.461 381.084 328.513 381.518 327.605C381.992 326.697 382.703 325.946 383.65 325.354C384.638 324.762 385.882 324.465 387.382 324.465C389.475 324.465 391.114 325.018 392.299 326.124C393.523 327.19 394.135 328.474 394.135 329.974C394.135 331.08 393.76 332.127 393.01 333.114C392.259 334.062 391.055 334.93 389.396 335.72L389.159 335.839V337.557H385.309ZM387.441 386.307C384.006 386.307 381.044 385.656 378.556 384.353C376.068 383.01 374.133 381.134 372.751 378.725C371.408 376.277 370.737 373.394 370.737 370.077V341.881H376.542V370.077C376.542 373.118 377.431 375.665 379.208 377.718C381.024 379.772 383.769 380.799 387.441 380.799C391.154 380.799 393.898 379.772 395.675 377.718C397.492 375.665 398.4 373.118 398.4 370.077V341.881H404.205V370.077C404.205 373.394 403.514 376.277 402.132 378.725C400.789 381.134 398.874 383.01 396.386 384.353C393.898 385.656 390.917 386.307 387.441 386.307ZM411.341 385.715L426.802 341.881H434.088L449.607 385.715H443.447L439.774 375.23H421.174L417.502 385.715H411.341ZM422.951 370.018H437.997L430.474 348.515L422.951 370.018ZM470.683 385.715V341.881H487.565C490.369 341.881 492.758 342.394 494.733 343.421C496.747 344.408 498.287 345.751 499.353 347.449C500.419 349.107 500.953 350.924 500.953 352.899C500.953 355.071 500.558 356.828 499.768 358.171C498.978 359.513 498.09 360.54 497.102 361.251C496.115 361.922 495.325 362.376 494.733 362.613V362.969C495.681 363.245 496.767 363.778 497.991 364.568C499.255 365.318 500.341 366.404 501.249 367.826C502.157 369.248 502.611 371.104 502.611 373.394C502.611 375.408 502.118 377.363 501.13 379.258C500.143 381.154 498.583 382.714 496.451 383.938C494.318 385.123 491.495 385.715 487.98 385.715H470.683ZM487.328 346.916H476.488V360.895H487.328C489.224 360.895 490.744 360.56 491.89 359.888C493.074 359.217 493.923 358.348 494.437 357.282C494.99 356.176 495.266 355.051 495.266 353.906C495.266 352.721 494.99 351.595 494.437 350.529C493.923 349.463 493.074 348.594 491.89 347.923C490.744 347.251 489.224 346.916 487.328 346.916ZM487.802 365.575H476.488V380.68H487.802C489.974 380.68 491.712 380.325 493.015 379.614C494.318 378.864 495.266 377.916 495.858 376.771C496.49 375.586 496.806 374.362 496.806 373.098C496.806 371.834 496.49 370.63 495.858 369.485C495.266 368.339 494.318 367.411 493.015 366.7C491.712 365.95 489.974 365.575 487.802 365.575ZM520.208 336.786L527.375 328.079H532.173L539.341 336.786H534.247L529.745 331.337L525.302 336.786H520.208ZM529.745 386.307C526.27 386.307 523.209 385.676 520.563 384.412C517.917 383.109 515.706 381.391 513.929 379.258C512.152 377.086 510.809 374.658 509.901 371.972C508.993 369.287 508.538 366.542 508.538 363.739C508.538 360.935 508.993 358.21 509.901 355.564C510.809 352.879 512.152 350.47 513.929 348.337C515.706 346.205 517.917 344.507 520.563 343.243C523.209 341.94 526.27 341.288 529.745 341.288C533.22 341.288 536.28 341.94 538.926 343.243C541.572 344.507 543.784 346.205 545.561 348.337C547.338 350.47 548.68 352.879 549.589 355.564C550.497 358.21 550.951 360.935 550.951 363.739C550.951 366.542 550.497 369.287 549.589 371.972C548.68 374.658 547.338 377.086 545.561 379.258C543.784 381.391 541.572 383.109 538.926 384.412C536.28 385.676 533.22 386.307 529.745 386.307ZM529.745 380.917C532.233 380.917 534.424 380.443 536.32 379.495C538.216 378.548 539.795 377.264 541.059 375.645C542.362 374.026 543.349 372.19 544.021 370.136C544.692 368.083 545.028 365.95 545.028 363.739C545.028 361.567 544.692 359.474 544.021 357.46C543.349 355.406 542.362 353.57 541.059 351.951C539.795 350.332 538.216 349.048 536.32 348.1C534.424 347.153 532.233 346.679 529.745 346.679C527.257 346.679 525.065 347.153 523.17 348.1C521.274 349.048 519.675 350.332 518.372 351.951C517.108 353.57 516.14 355.406 515.469 357.46C514.798 359.474 514.462 361.567 514.462 363.739C514.462 365.95 514.798 368.083 515.469 370.136C516.14 372.19 517.108 374.026 518.372 375.645C519.675 377.264 521.274 378.548 523.17 379.495C525.065 380.443 527.257 380.917 529.745 380.917ZM529.745 399.162C528.639 399.162 527.711 398.767 526.961 397.977C526.25 397.227 525.895 396.338 525.895 395.311C525.895 394.245 526.25 393.337 526.961 392.586C527.711 391.836 528.639 391.461 529.745 391.461C530.851 391.461 531.759 391.836 532.47 392.586C533.22 393.337 533.595 394.245 533.595 395.311C533.595 396.377 533.22 397.286 532.47 398.036C531.759 398.786 530.851 399.162 529.745 399.162ZM592.158 386.307C588.604 386.307 585.504 385.676 582.858 384.412C580.212 383.148 578.02 381.45 576.283 379.318C574.545 377.146 573.242 374.737 572.373 372.091C571.544 369.406 571.129 366.661 571.129 363.857C571.129 361.053 571.544 358.309 572.373 355.623C573.242 352.938 574.545 350.529 576.283 348.397C578.06 346.225 580.271 344.507 582.917 343.243C585.602 341.94 588.742 341.288 592.336 341.288C595.1 341.288 597.469 341.644 599.444 342.355C601.458 343.065 603.136 343.974 604.479 345.079C605.822 346.185 606.908 347.37 607.737 348.634C608.566 349.858 609.198 351.023 609.632 352.129C610.067 353.234 610.343 354.143 610.462 354.853C610.62 355.564 610.699 355.92 610.699 355.92H604.834C604.834 355.92 604.755 355.604 604.597 354.972C604.439 354.34 604.123 353.57 603.65 352.662C603.176 351.714 602.465 350.786 601.517 349.878C600.609 348.93 599.404 348.14 597.904 347.508C596.443 346.876 594.606 346.56 592.395 346.56C589.788 346.56 587.518 347.054 585.583 348.041C583.648 349.029 582.048 350.351 580.785 352.01C579.521 353.629 578.573 355.465 577.941 357.519C577.309 359.533 576.994 361.606 576.994 363.739C576.994 365.911 577.309 368.043 577.941 370.136C578.573 372.19 579.521 374.046 580.785 375.704C582.088 377.323 583.687 378.627 585.583 379.614C587.478 380.562 589.67 381.035 592.158 381.035C596.225 381.035 599.444 379.851 601.813 377.481C604.222 375.072 605.525 371.834 605.723 367.767H592.691V362.969H611.291V365.99C611.291 370.492 610.422 374.243 608.685 377.244C606.987 380.246 604.696 382.516 601.813 384.056C598.93 385.557 595.712 386.307 592.158 386.307ZM630.614 385.715V346.975H616.93V341.881H650.102V346.975H636.419V385.715H630.614ZM670.029 385.715L654.568 341.881H660.729L673.701 379.081L686.674 341.881H692.834L677.315 385.715H670.029ZM710.964 385.715V346.975H697.28V341.881H730.452V346.975H716.769V385.715H710.964ZM732.439 393.001L736.704 386.13C735.757 386.051 734.947 385.656 734.276 384.945C733.644 384.234 733.328 383.365 733.328 382.339C733.328 381.193 733.723 380.285 734.513 379.614C735.302 378.942 736.191 378.607 737.178 378.607C738.284 378.607 739.212 378.942 739.962 379.614C740.752 380.285 741.147 381.233 741.147 382.457C741.147 383.563 740.713 384.827 739.844 386.248C739.014 387.67 737.672 389.723 735.816 392.409L735.401 393.001H732.439ZM779.307 337.557V335.661C779.307 335.266 779.386 334.871 779.544 334.476C779.702 334.081 780.018 333.765 780.491 333.529L781.321 333.114C783.137 332.206 784.046 331.199 784.046 330.093C784.046 329.54 783.828 329.046 783.394 328.612C782.999 328.138 782.347 327.901 781.439 327.901C780.649 327.901 780.057 328.079 779.662 328.434C779.307 328.75 779.07 329.106 778.951 329.501C778.833 329.895 778.774 330.211 778.774 330.448H774.864C774.864 329.461 775.081 328.513 775.516 327.605C775.99 326.697 776.7 325.946 777.648 325.354C778.635 324.762 779.879 324.465 781.38 324.465C783.473 324.465 785.112 325.018 786.297 326.124C787.521 327.19 788.133 328.474 788.133 329.974C788.133 331.08 787.758 332.127 787.007 333.114C786.257 334.062 785.053 334.93 783.394 335.72L783.157 335.839V337.557H779.307ZM781.439 386.307C778.004 386.307 775.042 385.656 772.554 384.353C770.066 383.01 768.131 381.134 766.749 378.725C765.406 376.277 764.735 373.394 764.735 370.077V341.881H770.54V370.077C770.54 373.118 771.428 375.665 773.205 377.718C775.022 379.772 777.767 380.799 781.439 380.799C785.151 380.799 787.896 379.772 789.673 377.718C791.49 375.665 792.398 373.118 792.398 370.077V341.881H798.203V370.077C798.203 373.394 797.512 376.277 796.13 378.725C794.787 381.134 792.872 383.01 790.384 384.353C787.896 385.656 784.914 386.307 781.439 386.307ZM822.157 385.715V370.136L806.815 341.881H813.153L825.06 364.213L836.907 341.881H843.245L827.903 370.136V385.715H822.157ZM863.119 385.715V341.881H880.001C882.805 341.881 885.194 342.394 887.169 343.421C889.183 344.408 890.723 345.751 891.789 347.449C892.855 349.107 893.388 350.924 893.388 352.899C893.388 355.071 892.994 356.828 892.204 358.171C891.414 359.513 890.525 360.54 889.538 361.251C888.551 361.922 887.761 362.376 887.169 362.613V362.969C888.117 363.245 889.203 363.778 890.427 364.568C891.69 365.318 892.776 366.404 893.685 367.826C894.593 369.248 895.047 371.104 895.047 373.394C895.047 375.408 894.553 377.363 893.566 379.258C892.579 381.154 891.019 382.714 888.887 383.938C886.754 385.123 883.931 385.715 880.416 385.715H863.119ZM879.764 346.916H868.924V360.895H879.764C881.66 360.895 883.18 360.56 884.325 359.888C885.51 359.217 886.359 358.348 886.873 357.282C887.425 356.176 887.702 355.051 887.702 353.906C887.702 352.721 887.425 351.595 886.873 350.529C886.359 349.463 885.51 348.594 884.325 347.923C883.18 347.251 881.66 346.916 879.764 346.916ZM880.238 365.575H868.924V380.68H880.238C882.41 380.68 884.148 380.325 885.451 379.614C886.754 378.864 887.702 377.916 888.294 376.771C888.926 375.586 889.242 374.362 889.242 373.098C889.242 371.834 888.926 370.63 888.294 369.485C887.702 368.339 886.754 367.411 885.451 366.7C884.148 365.95 882.41 365.575 880.238 365.575ZM900.96 385.715L916.421 341.881H923.707L939.227 385.715H933.066L929.394 375.23H910.794L907.121 385.715H900.96ZM912.571 370.018H927.616L920.094 348.515L912.571 370.018ZM946.651 385.715V341.881H951.863L974.728 375.23V341.881H980.533V385.715H975.321L952.456 352.425V385.715H946.651ZM1001.61 385.715L1017.08 341.881H1024.36L1039.88 385.715H1033.72L1030.05 375.23H1011.45L1007.78 385.715H1001.61ZM1013.22 370.018H1028.27L1020.75 348.515L1013.22 370.018ZM1053.59 385.715V346.975H1039.91V341.881H1073.08V346.975H1059.4V385.715H1053.59ZM1095.89 386.307C1092.34 386.307 1089.24 385.676 1086.59 384.412C1083.95 383.148 1081.75 381.45 1080.02 379.318C1078.28 377.146 1076.98 374.737 1076.11 372.091C1075.28 369.406 1074.86 366.661 1074.86 363.857C1074.86 361.053 1075.28 358.309 1076.11 355.623C1076.98 352.938 1078.28 350.529 1080.02 348.397C1081.79 346.225 1084.01 344.507 1086.65 343.243C1089.34 341.94 1092.48 341.288 1096.07 341.288C1098.83 341.288 1101.2 341.644 1103.18 342.355C1105.19 343.065 1106.87 343.974 1108.21 345.079C1109.56 346.185 1110.64 347.37 1111.47 348.634C1112.3 349.858 1112.93 351.023 1113.37 352.129C1113.8 353.234 1114.08 354.143 1114.2 354.853C1114.35 355.564 1114.43 355.92 1114.43 355.92H1108.57C1108.57 355.92 1108.49 355.604 1108.33 354.972C1108.17 354.34 1107.86 353.57 1107.38 352.662C1106.91 351.714 1106.2 350.786 1105.25 349.878C1104.34 348.93 1103.14 348.14 1101.64 347.508C1100.18 346.876 1098.34 346.56 1096.13 346.56C1093.52 346.56 1091.25 347.054 1089.32 348.041C1087.38 349.029 1085.78 350.351 1084.52 352.01C1083.25 353.629 1082.31 355.465 1081.68 357.519C1081.04 359.533 1080.73 361.606 1080.73 363.739C1080.73 365.911 1081.04 368.043 1081.68 370.136C1082.31 372.19 1083.25 374.046 1084.52 375.704C1085.82 377.323 1087.42 378.627 1089.32 379.614C1091.21 380.562 1093.4 381.035 1095.89 381.035C1099.96 381.035 1103.18 379.851 1105.55 377.481C1107.96 375.072 1109.26 371.834 1109.46 367.767H1096.42V362.969H1115.02V365.99C1115.02 370.492 1114.16 374.243 1112.42 377.244C1110.72 380.246 1108.43 382.516 1105.55 384.056C1102.66 385.557 1099.45 386.307 1095.89 386.307ZM1134.35 385.715V346.975H1120.66V341.881H1153.84V346.975H1140.15V385.715H1134.35ZM1194.64 386.307C1191.17 386.307 1188.11 385.676 1185.46 384.412C1182.81 383.109 1180.6 381.391 1178.83 379.258C1177.05 377.086 1175.71 374.658 1174.8 371.972C1173.89 369.287 1173.43 366.542 1173.43 363.739C1173.43 360.935 1173.89 358.21 1174.8 355.564C1175.71 352.879 1177.05 350.47 1178.83 348.337C1180.6 346.205 1182.81 344.507 1185.46 343.243C1188.11 341.94 1191.17 341.288 1194.64 341.288C1198.12 341.288 1201.18 341.94 1203.82 343.243C1206.47 344.507 1208.68 346.205 1210.46 348.337C1212.23 350.47 1213.58 352.879 1214.49 355.564C1215.39 358.21 1215.85 360.935 1215.85 363.739C1215.85 366.542 1215.39 369.287 1214.49 371.972C1213.62 374.658 1212.29 377.067 1210.52 379.199L1217.09 385.715H1209.75L1206.73 382.694C1205.11 383.839 1203.29 384.728 1201.28 385.36C1199.26 385.992 1197.05 386.307 1194.64 386.307ZM1194.64 380.917C1196.22 380.917 1197.66 380.72 1198.97 380.325C1200.31 379.93 1201.53 379.377 1202.64 378.666L1195.65 371.735L1199.44 368.181L1206.43 375.112C1207.57 373.532 1208.44 371.775 1209.04 369.84C1209.63 367.865 1209.92 365.832 1209.92 363.739C1209.92 361.567 1209.59 359.474 1208.92 357.46C1208.25 355.406 1207.26 353.57 1205.96 351.951C1204.69 350.332 1203.11 349.048 1201.22 348.1C1199.32 347.153 1197.13 346.679 1194.64 346.679C1192.15 346.679 1189.96 347.153 1188.07 348.1C1186.17 349.048 1184.57 350.332 1183.27 351.951C1182 353.57 1181.04 355.406 1180.37 357.46C1179.69 359.474 1179.36 361.567 1179.36 363.739C1179.36 365.95 1179.69 368.083 1180.37 370.136C1181.04 372.19 1182 374.026 1183.27 375.645C1184.57 377.264 1186.17 378.548 1188.07 379.495C1189.96 380.443 1192.15 380.917 1194.64 380.917ZM1240.33 386.307C1236.89 386.307 1233.93 385.656 1231.44 384.353C1228.95 383.01 1227.02 381.134 1225.64 378.725C1224.29 376.277 1223.62 373.394 1223.62 370.077V341.881H1229.43V370.077C1229.43 373.118 1230.32 375.665 1232.09 377.718C1233.91 379.772 1236.66 380.799 1240.33 380.799C1244.04 380.799 1246.78 379.772 1248.56 377.718C1250.38 375.665 1251.29 373.118 1251.29 370.077V341.881H1257.09V370.077C1257.09 373.394 1256.4 376.277 1255.02 378.725C1253.68 381.134 1251.76 383.01 1249.27 384.353C1246.78 385.656 1243.8 386.307 1240.33 386.307ZM1297.7 329.204L1292.91 329.145L1298 318.483H1303.81L1297.7 329.204ZM1276.73 336.786L1283.9 328.079H1288.7L1295.87 336.786H1290.77L1286.27 331.337L1281.83 336.786H1276.73ZM1286.27 386.307C1282.8 386.307 1279.74 385.676 1277.09 384.412C1274.44 383.109 1272.23 381.391 1270.46 379.258C1268.68 377.086 1267.34 374.658 1266.43 371.972C1265.52 369.287 1265.06 366.542 1265.06 363.739C1265.06 360.935 1265.52 358.21 1266.43 355.564C1267.34 352.879 1268.68 350.47 1270.46 348.337C1272.23 346.205 1274.44 344.507 1277.09 343.243C1279.74 341.94 1282.8 341.288 1286.27 341.288C1289.75 341.288 1292.81 341.94 1295.45 343.243C1298.1 344.507 1300.31 346.205 1302.09 348.337C1303.86 350.47 1305.21 352.879 1306.12 355.564C1307.02 358.21 1307.48 360.935 1307.48 363.739C1307.48 366.542 1307.02 369.287 1306.12 371.972C1305.21 374.658 1303.86 377.086 1302.09 379.258C1300.31 381.391 1298.1 383.109 1295.45 384.412C1292.81 385.676 1289.75 386.307 1286.27 386.307ZM1286.27 380.917C1288.76 380.917 1290.95 380.443 1292.85 379.495C1294.74 378.548 1296.32 377.264 1297.59 375.645C1298.89 374.026 1299.88 372.19 1300.55 370.136C1301.22 368.083 1301.55 365.95 1301.55 363.739C1301.55 361.567 1301.22 359.474 1300.55 357.46C1299.88 355.406 1298.89 353.57 1297.59 351.951C1296.32 350.332 1294.74 349.048 1292.85 348.1C1290.95 347.153 1288.76 346.679 1286.27 346.679C1283.78 346.679 1281.59 347.153 1279.7 348.1C1277.8 349.048 1276.2 350.332 1274.9 351.951C1273.63 353.57 1272.67 355.406 1272 357.46C1271.32 359.474 1270.99 361.567 1270.99 363.739C1270.99 365.95 1271.32 368.083 1272 370.136C1272.67 372.19 1273.63 374.026 1274.9 375.645C1276.2 377.264 1277.8 378.548 1279.7 379.495C1281.59 380.443 1283.78 380.917 1286.27 380.917ZM1334.74 386.307C1331.3 386.307 1328.28 385.676 1325.67 384.412C1323.07 383.109 1320.89 381.391 1319.16 379.258C1317.46 377.086 1316.18 374.678 1315.31 372.032C1314.44 369.346 1314 366.602 1314 363.798C1314 360.994 1314.44 358.25 1315.31 355.564C1316.18 352.879 1317.46 350.47 1319.16 348.337C1320.89 346.165 1323.07 344.448 1325.67 343.184C1328.28 341.92 1331.3 341.288 1334.74 341.288C1337.58 341.288 1340.01 341.664 1342.02 342.414C1344.08 343.125 1345.77 344.053 1347.12 345.198C1348.5 346.343 1349.6 347.567 1350.43 348.871C1351.3 350.174 1351.93 351.398 1352.33 352.543C1352.76 353.688 1353.04 354.636 1353.16 355.386C1353.32 356.097 1353.4 356.453 1353.4 356.453H1347.59C1347.59 356.453 1347.51 356.137 1347.35 355.505C1347.2 354.834 1346.88 354.024 1346.41 353.076C1345.93 352.089 1345.22 351.102 1344.27 350.114C1343.33 349.127 1342.08 348.318 1340.54 347.686C1339 347.014 1337.09 346.679 1334.8 346.679C1332.31 346.679 1330.14 347.172 1328.28 348.16C1326.42 349.107 1324.86 350.411 1323.6 352.069C1322.38 353.688 1321.45 355.525 1320.82 357.578C1320.22 359.592 1319.93 361.665 1319.93 363.798C1319.93 365.93 1320.22 368.023 1320.82 370.077C1321.45 372.091 1322.38 373.927 1323.6 375.586C1324.86 377.205 1326.42 378.508 1328.28 379.495C1330.14 380.443 1332.31 380.917 1334.8 380.917C1337.09 380.917 1339 380.581 1340.54 379.91C1342.08 379.239 1343.33 378.429 1344.27 377.481C1345.22 376.494 1345.93 375.527 1346.41 374.579C1346.88 373.592 1347.2 372.762 1347.35 372.091C1347.51 371.42 1347.59 371.084 1347.59 371.084H1353.4C1353.4 371.084 1353.32 371.459 1353.16 372.209C1353.04 372.92 1352.76 373.868 1352.33 375.053C1351.93 376.198 1351.3 377.422 1350.43 378.725C1349.6 379.989 1348.5 381.213 1347.12 382.398C1345.77 383.543 1344.08 384.491 1342.02 385.241C1340.01 385.952 1337.58 386.307 1334.74 386.307ZM1394.62 386.307C1391.06 386.307 1387.96 385.676 1385.32 384.412C1382.67 383.148 1380.48 381.45 1378.74 379.318C1377 377.146 1375.7 374.737 1374.83 372.091C1374 369.406 1373.59 366.661 1373.59 363.857C1373.59 361.053 1374 358.309 1374.83 355.623C1375.7 352.938 1377 350.529 1378.74 348.397C1380.52 346.225 1382.73 344.507 1385.37 343.243C1388.06 341.94 1391.2 341.288 1394.79 341.288C1397.56 341.288 1399.93 341.644 1401.9 342.355C1403.92 343.065 1405.59 343.974 1406.94 345.079C1408.28 346.185 1409.36 347.37 1410.19 348.634C1411.02 349.858 1411.66 351.023 1412.09 352.129C1412.52 353.234 1412.8 354.143 1412.92 354.853C1413.08 355.564 1413.16 355.92 1413.16 355.92H1407.29C1407.29 355.92 1407.21 355.604 1407.05 354.972C1406.9 354.34 1406.58 353.57 1406.11 352.662C1405.63 351.714 1404.92 350.786 1403.97 349.878C1403.07 348.93 1401.86 348.14 1400.36 347.508C1398.9 346.876 1397.06 346.56 1394.85 346.56C1392.25 346.56 1389.97 347.054 1388.04 348.041C1386.1 349.029 1384.51 350.351 1383.24 352.01C1381.98 353.629 1381.03 355.465 1380.4 357.519C1379.77 359.533 1379.45 361.606 1379.45 363.739C1379.45 365.911 1379.77 368.043 1380.4 370.136C1381.03 372.19 1381.98 374.046 1383.24 375.704C1384.55 377.323 1386.14 378.627 1388.04 379.614C1389.94 380.562 1392.13 381.035 1394.62 381.035C1398.68 381.035 1401.9 379.851 1404.27 377.481C1406.68 375.072 1407.98 371.834 1408.18 367.767H1395.15V362.969H1413.75V365.99C1413.75 370.492 1412.88 374.243 1411.14 377.244C1409.44 380.246 1407.15 382.516 1404.27 384.056C1401.39 385.557 1398.17 386.307 1394.62 386.307ZM1421.46 385.715V341.881H1427.27V385.715H1421.46ZM1434.66 385.715L1450.12 341.881H1457.41L1472.93 385.715H1466.76L1463.09 375.23H1444.49L1440.82 385.715H1434.66ZM1446.27 370.018H1461.32L1453.79 348.515L1446.27 370.018Z" fill="black"/>
<path d="M160.43 156.29H86.3399C84.4299 156.29 82.88 158.01 82.88 160.12V191.19C82.88 193.3 84.4299 195.02 86.3399 195.02H99.35V220.27C98.96 231.53 97.83 238.67 96.07 240.97C95.28 242 92.59 244.41 84.82 244.43C78.8 244.15 75.0799 243.12 73.3599 241.3L73.1999 241.1C72.1699 239.63 70.4499 235.22 70.4499 222.28V125.74C70.4499 115.61 72.35 113.13 72.74 112.73C73.2999 112.12 75.3999 110.65 82.2299 110.65C88.2599 110.65 90.7399 111.97 91.7499 113.09C93.6299 115.02 94.0099 121.91 94.0099 127.35V138.21C94.0099 140.32 95.5599 142.04 97.4699 142.04H160.44C162.34 142.04 163.9 140.32 163.9 138.21V134.1C163.46 108.02 157.13 89.73 144.52 78.22C131.41 66.97 110.48 61.3 82.2299 61.3C52.9799 61.3 32.0099 67.11 19.8999 78.57C6.87995 90.4 0.569946 110.02 0.569946 138.57V216.51C1.00995 244.75 7.04995 264.16 19.0299 275.84C31.6799 287.74 51.5699 293.79 78.1099 293.79C88.7499 293.79 98.0199 292.78 105.65 290.8C112.78 288.75 118.87 286.29 124.33 283.26L125.6 282.56L131.58 289.68C132.22 290.45 133.14 290.9 134.1 290.9H160.44C162.34 290.9 163.9 289.18 163.9 287.07V160.13C163.88 158.01 162.33 156.29 160.43 156.29Z" fill="#FF0000"/>
<path d="M775.39 64.2H640.79C638.88 64.2 637.33 65.92 637.33 68.03V108.12C637.33 110.23 638.88 111.95 640.79 111.95H673.56V287.07C673.56 289.18 675.11 290.9 677.01 290.9H739.17C741.07 290.9 742.62 289.18 742.62 287.07V111.96H775.39C777.29 111.96 778.84 110.24 778.84 108.13V68.04C778.83 65.92 777.29 64.2 775.39 64.2Z" fill="#FF0000"/>
<path d="M945.4 64.2H883.24C881.34 64.2 879.79 65.92 879.79 68.03V142.44H857.87V68.03C857.87 65.92 856.32 64.2 854.42 64.2H792.26C790.36 64.2 788.81 65.92 788.81 68.03V287.07C788.81 289.18 790.36 290.9 792.26 290.9H854.42C856.32 290.9 857.87 289.18 857.87 287.07V190.2H879.79V287.07C879.79 289.18 881.34 290.9 883.24 290.9H945.4C947.3 290.9 948.86 289.18 948.86 287.07V68.04C948.85 65.92 947.3 64.2 945.4 64.2Z" fill="#FF0000"/>
<path d="M1121.78 138.59C1121.34 110.04 1115.03 90.4 1102.44 78.58C1089.92 67.13 1068.95 61.32 1040.12 61.32C1010.87 61.32 989.9 67.13 977.79 78.58C964.77 90.41 958.46 110.03 958.46 138.59V216.52C958.89 245.06 965.21 264.7 977.8 276.53C990.32 287.98 1011.3 293.8 1040.11 293.8C1069.37 293.8 1090.33 287.98 1102.45 276.52C1115.46 264.7 1121.78 245.08 1121.78 216.52V138.59ZM1051.9 227.75C1051.9 237.42 1050.52 240.97 1049.69 242.23L1049.39 242.58C1048.65 243.24 1046.26 244.76 1040.12 244.76C1035.09 244.76 1031.92 243.67 1030.62 242.65L1030.36 242.38C1029.86 241.76 1028.34 239.89 1028.34 229.36V125.77C1028.34 115.5 1030.28 113.09 1030.68 112.71C1031.23 112.13 1033.35 110.67 1040.12 110.67C1046.16 110.67 1048.63 111.99 1049.64 113.11C1051.52 115.06 1051.9 121.94 1051.9 127.37V227.75Z" fill="#FF0000"/>
<path d="M1289.2 64.2H1227.46C1225.55 64.2 1224 65.92 1224 68.03V110.98L1220.77 105.06C1218.29 100.52 1215.69 95.97 1213.04 91.56C1206.84 81.58 1200.95 73.05 1195.07 65.51C1194.41 64.67 1193.47 64.19 1192.46 64.19H1134.83C1132.93 64.19 1131.38 65.91 1131.38 68.02V287.06C1131.38 289.17 1132.93 290.89 1134.83 290.89H1196.98C1198.89 290.89 1200.44 289.17 1200.44 287.06V153.83L1203.69 160.08C1208.91 170.1 1213.16 180.75 1216.35 191.72C1221.43 208.15 1224 225.78 1224 244.1V287.07C1224 289.18 1225.55 290.9 1227.46 290.9H1289.2C1291.1 290.9 1292.66 289.18 1292.66 287.07V68.04C1292.66 65.92 1291.1 64.2 1289.2 64.2Z" fill="#FF0000"/>
<path d="M1462.19 156.29H1388.1C1386.19 156.29 1384.64 158.01 1384.64 160.12V191.19C1384.64 193.3 1386.19 195.02 1388.1 195.02H1401.11V220.27C1400.72 231.52 1399.59 238.67 1397.83 240.96C1397.03 242 1394.33 244.41 1386.58 244.43C1380.56 244.15 1376.84 243.12 1375.12 241.3L1374.96 241.1C1373.93 239.61 1372.21 235.2 1372.21 222.28V125.74C1372.21 115.48 1374.15 113.07 1374.55 112.69C1375.03 112.15 1377.08 110.65 1383.99 110.65C1390.01 110.65 1392.49 111.97 1393.51 113.08C1395.39 115.07 1395.77 121.92 1395.77 127.35V138.21C1395.77 140.32 1397.32 142.04 1399.23 142.04H1462.2C1464.11 142.04 1465.66 140.32 1465.66 138.21V134.1C1465.22 108.02 1458.89 89.73 1446.28 78.22C1433.17 66.97 1412.24 61.3 1383.99 61.3C1354.73 61.3 1333.76 67.11 1321.66 78.57C1308.64 90.4 1302.33 110.01 1302.33 138.57V216.51C1302.77 244.75 1308.81 264.17 1320.79 275.84C1333.44 287.74 1353.33 293.79 1379.87 293.79C1390.51 293.79 1399.77 292.79 1407.41 290.8C1414.55 288.74 1420.64 286.29 1426.09 283.26L1427.35 282.56L1433.33 289.68C1433.98 290.45 1434.9 290.9 1435.85 290.9H1462.19C1464.1 290.9 1465.65 289.18 1465.65 287.07V160.13C1465.65 158.01 1464.1 156.29 1462.19 156.29Z" fill="#FF0000"/>
<path d="M1051.47 54.5C1051.86 54.7 1052.33 54.8 1052.78 54.8H1076.17C1077.31 54.8 1078.3 54.17 1078.58 53.29C1078.85 52.47 1078.43 51.6 1077.55 51.12L1048.7 35.48C1048.29 35.26 1047.8 35.14 1047.31 35.14H1033.6C1033.11 35.14 1032.63 35.26 1032.22 35.48L1003.37 51.12C1002.49 51.6 1002.07 52.47 1002.33 53.28C1002.62 54.18 1003.61 54.8 1004.75 54.8H1026.13C1026.53 54.8 1026.93 54.72 1027.3 54.56L1040.36 48.97L1051.47 54.5Z" fill="#FF0000"/>
<path d="M209.51 49.13C193.62 49.13 180.7 58.36 180.7 69.71C180.7 81.05 193.62 90.28 209.51 90.28C225.4 90.28 238.32 81.05 238.32 69.71C238.32 58.36 225.39 49.13 209.51 49.13Z" fill="#FF0000"/>
<path d="M594.72 78.59C582.19 67.14 561.22 61.32 532.4 61.32C503.14 61.32 482.17 67.14 470.06 78.59C458.7 88.92 452.5 105.07 451.06 127.97L450.97 129.49L449.4 129.54C443.9 129.7 424.71 130.44 408.71 133.09L407.25 133.34L363.42 3.32C363.09 2.33 362.4 1.53 361.53 1.12C360.69 0.729996 359.74 0.719996 358.91 1.1L324.07 16.66C323.13 17.09 322.4 17.94 322.08 19.02L244.21 279.13V75.95C240.49 87.97 226.37 96.95 209.51 96.95C193.13 96.95 179.32 88.46 175.15 76.95V287.07C175.15 289.18 176.7 290.9 178.6 290.9H240.76C241.26 290.9 241.76 290.76 242.26 290.49L243.11 290.04L243.95 290.5C244.44 290.76 244.95 290.9 245.48 290.9H283.28C284.67 290.9 285.92 289.98 286.46 288.54C286.68 287.96 309.42 229.58 368.67 203.73L370.48 202.94L395.29 288.24C395.75 289.83 397.07 290.9 398.57 290.9H452.84C453.92 290.9 454.95 290.32 455.6 289.35C456.29 288.33 456.47 286.99 456.09 285.79L425.97 191.64L428.22 191.57C431.13 191.48 434.34 191.43 437.64 191.43C441.72 191.43 445.69 191.51 449.12 191.66L450.76 191.73V216.51C451.2 245.05 457.52 264.69 470.09 276.52C482.62 287.97 503.6 293.79 532.42 293.79C561.67 293.79 582.63 287.98 594.75 276.51C607.77 264.69 614.08 245.07 614.08 216.51V138.6C613.62 110.04 607.3 90.4 594.72 78.59ZM354.01 150.18C333.17 160.69 315 175.57 300.02 194.43L294.66 201.17L332.04 70.11L355.26 149.56L354.01 150.18ZM544.18 227.75C544.18 237.43 542.79 240.99 541.97 242.24L541.67 242.58C540.13 243.95 536.67 244.76 532.41 244.76C527.38 244.76 524.21 243.67 522.91 242.65L522.64 242.38C522.15 241.76 520.63 239.89 520.63 229.36V125.76C520.63 115.63 522.54 113.15 522.92 112.75C523.41 112.18 525.44 110.67 532.41 110.67C538.44 110.67 540.91 111.99 541.92 113.11C543.8 115.04 544.18 121.92 544.18 127.37V227.75Z" fill="#FF0000"/>
</svg>
